<?xml version="1.0" encoding="utf-8"?>
<!-- Generator: Adobe Illustrator 22.1.0, SVG Export Plug-In . SVG Version: 6.00 Build 0)  -->
<svg version="1.1" id="Layer_1" xmlns="http://www.w3.org/2000/svg" xmlns:xlink="http://www.w3.org/1999/xlink" x="0px" y="0px"
	 viewBox="0 0 24 24" style="enable-background:new 0 0 24 24;" xml:space="preserve">
<path d="M12,22C6.5,22,2,17.5,2,12S6.5,2,12,2s10,4.5,10,10S17.5,22,12,22z M12,20c4.4,0,8-3.6,8-8s-3.6-8-8-8s-8,3.6-8,8
	S7.6,20,12,20z M9.7,11.3l1.3,1.3l3.3-3.3c0.4-0.4,1.1-0.3,1.4,0.1c0.3,0.4,0.3,0.9,0,1.3l-4,4c-0.4,0.4-1,0.4-1.4,0l-2-2
	c-0.4-0.4-0.3-1,0.1-1.4C8.8,11,9.3,11,9.7,11.3L9.7,11.3z"/>
</svg>
